<?xml version="1.0" encoding="UTF-8" standalone="no"?>
<!-- Created with Inkscape (http://www.inkscape.org/) -->

<svg
   xmlns:dc="http://purl.org/dc/elements/1.1/"
   xmlns:cc="http://creativecommons.org/ns#"
   xmlns:rdf="http://www.w3.org/1999/02/22-rdf-syntax-ns#"
   xmlns:svg="http://www.w3.org/2000/svg"
   xmlns="http://www.w3.org/2000/svg"
   xmlns:sodipodi="http://sodipodi.sourceforge.net/DTD/sodipodi-0.dtd"
   xmlns:inkscape="http://www.inkscape.org/namespaces/inkscape"
   width="128"
   height="128"
   viewBox="0 0 33.866665 33.866666"
   version="1.1"
   id="svg8"
   inkscape:version="0.92.4 (5da689c313, 2019-01-14)"
   sodipodi:docname="icon.svg"
   inkscape:export-filename="E:\agol_assist\icons\icon.png"
   inkscape:export-xdpi="96"
   inkscape:export-ydpi="96">
  <defs
     id="defs2" />
  <sodipodi:namedview
     id="base"
     pagecolor="#ffffff"
     bordercolor="#666666"
     borderopacity="1.0"
     inkscape:pageopacity="1"
     inkscape:pageshadow="2"
     inkscape:zoom="0.7"
     inkscape:cx="186.1095"
     inkscape:cy="240.816"
     inkscape:document-units="mm"
     inkscape:current-layer="layer1"
     showgrid="false"
     units="px"
     inkscape:window-width="2560"
     inkscape:window-height="1369"
     inkscape:window-x="-8"
     inkscape:window-y="-8"
     inkscape:window-maximized="1" />
  <metadata
     id="metadata5">
    <rdf:RDF>
      <cc:Work
         rdf:about="">
        <dc:format>image/svg+xml</dc:format>
        <dc:type
           rdf:resource="http://purl.org/dc/dcmitype/StillImage" />
        <dc:title></dc:title>
      </cc:Work>
    </rdf:RDF>
  </metadata>
  <g
     inkscape:label="Layer 1"
     inkscape:groupmode="layer"
     id="layer1"
     transform="translate(0,-263.13334)">
    <path
       style="fill:none;stroke-width:1.11502969"
       inkscape:connector-curvature="0"
       d="M 5.8964287,270.76846 H 32.657142 v 26.76071 H 5.8964287 Z"
       id="path4573" />
    <path
       style="stroke-width:1.11502969;fill:#ff7f00;fill-opacity:1"
       d="M 2.8348214,290.83899 H 15.931696 v 2.23006 H 2.8348214 Z"
       id="path4614" />
    <path
       style="stroke-width:1.11502969;fill:#984ea3;fill-opacity:1"
       d="M 2.8348214,284.63546 H 18.161755 v 2.23006 H 2.8348214 Z"
       id="path4612"
       inkscape:connector-curvature="0" />
    <path
       style="stroke-width:1.11502969;fill:#377eb8;fill-opacity:1"
       d="M 2.8348214,272.22838 H 30.427082 v 2.23006 H 2.8348214 Z"
       id="path4610"
       inkscape:connector-curvature="0" />
    <path
       style="stroke-width:1.11502969;fill:#4d4d4d"
       d="m 28.948553,285.29172 1.288974,-0.43597 1.11503,1.93123 -1.021367,0.8976 c 0.128558,0.60953 0.128558,1.23918 0,1.84871 l 1.021367,0.8976 -1.11503,1.93124 -1.288974,-0.43598 c -0.457162,0.41256 -1.001297,0.73034 -1.600068,0.92547 l -0.266492,1.33246 h -2.230059 l -0.267608,-1.33357 c -0.591789,-0.19339 -1.13648,-0.50866 -1.598952,-0.92548 l -1.288974,0.4371 -1.11503,-1.93124 1.021367,-0.8976 c -0.128558,-0.60953 -0.128558,-1.23918 0,-1.84871 l -1.021367,-0.8976 1.11503,-1.93123 1.288974,0.43597 c 0.457162,-0.41256 1.001297,-0.73034 1.600068,-0.92547 l 0.266492,-1.33246 h 2.230059 l 0.267607,1.33357 c 0.597656,0.19402 1.141791,0.51292 1.598953,0.92548 z"
       id="path4608" />
    <path
       style="stroke-width:1.11502969;fill:#ffffff"
       d="m 25.966963,289.72396 c 1.491022,0.004 1.491022,-2.23438 0,-2.23005 -1.482389,0.004 -1.482389,2.22575 0,2.23005 z"
       id="path4575" />
    <path
       inkscape:connector-curvature="0"
       style="stroke-width:1.26933825;fill:#4daf4a;fill-opacity:1"
       d="M 2.8348214,278.43192 H 22.697469 v 2.23006 H 2.8348214 Z"
       id="path4612-9" />
    <path
       inkscape:connector-curvature="0"
       style="stroke-width:1.11502969;fill:#e41a1c;fill-opacity:1"
       d="M 2.8348214,266.02485 H 30.427082 v 2.23006 H 2.8348214 Z"
       id="path4610-7" />
  </g>
</svg>
